<svg xmlns="http://www.w3.org/2000/svg" xmlns:xlink="http://www.w3.org/1999/xlink" version="1.1" id="Your_Icon" x="0px" y="0px" width="100px" height="100px" viewBox="0 0 100 100" enable-background="new 0 0 100 100" xml:space="preserve">
<path d="M53.129,79.595h0.128c0-0.053,0.037-5.301,3.12-5.301c8.346,0,10.839-14.33,11.097-15.961l0.28-1.779h-1.637l1.549-14.363  h-1.774l-0.346-10.316h-1.487l-1.118-8.893h-1.657l-2.382-9.841h-3.416L52.879,4h-2.45l-2.607,9.141h-3.415l-2.38,9.841h-1.661  l-1.085,8.893h-1.519L37.415,42.19h-1.773l1.549,14.363h-1.635l0.279,1.779c0.257,1.631,2.751,15.961,11.098,15.961  c3.059,0,3.118,5.252,3.118,5.301v4.148H17.709v3.078H86v-3.078H53.129V79.595z"/>
</svg>